<svg
  width="20"
  height="20"
  viewBox="0 0 20 20"
  fill="none"
  xmlns="http://www.w3.org/2000/svg"
>
  <path
    d="M11.2477 18.25C10.6977 18.25 10.1752 18.1455 9.68023 17.9365C9.18524 17.7275 8.74524 17.436 8.36024 17.062C7.94224 17.205 7.50773 17.2765 7.05673 17.2765C6.31973 17.2765 5.63773 17.095 5.01073 16.732C4.38373 16.369 3.87773 15.874 3.49273 15.247C3.11873 14.62 2.93173 13.9215 2.93173 13.1515C2.93173 12.8325 2.97573 12.486 3.06373 12.112C2.62373 11.705 2.28273 11.2375 2.04073 10.7095C1.79873 10.1705 1.67773 9.6095 1.67773 9.0265C1.67773 8.4325 1.80423 7.8605 2.05723 7.3105C2.31023 6.7605 2.66223 6.2875 3.11323 5.8915C3.57523 5.4845 4.10873 5.204 4.71373 5.05C4.83473 4.423 5.08773 3.862 5.47273 3.367C5.86873 2.861 6.35273 2.465 6.92474 2.179C7.49673 1.893 8.10723 1.75 8.75624 1.75C9.30624 1.75 9.82874 1.8545 10.3237 2.0635C10.8187 2.2725 11.2587 2.564 11.6437 2.938C12.0617 2.795 12.4962 2.7235 12.9472 2.7235C13.6842 2.7235 14.3662 2.905 14.9932 3.268C15.6202 3.631 16.1207 4.126 16.4947 4.753C16.8797 5.38 17.0722 6.0785 17.0722 6.8485C17.0722 7.1675 17.0282 7.514 16.9402 7.888C17.3802 8.295 17.7212 8.768 17.9632 9.307C18.2052 9.835 18.3262 10.3905 18.3262 10.9735C18.3262 11.5675 18.1997 12.1395 17.9467 12.6895C17.6937 13.2395 17.3362 13.718 16.8742 14.125C16.4232 14.521 15.8952 14.796 15.2902 14.95C15.1692 15.577 14.9107 16.138 14.5147 16.633C14.1297 17.139 13.6512 17.535 13.0792 17.821C12.5072 18.107 11.8967 18.25 11.2477 18.25ZM7.17223 16.1875C7.72223 16.1875 8.20073 16.072 8.60773 15.841L11.7097 14.059C11.8197 13.982 11.8747 13.8775 11.8747 13.7455V12.3265L7.88173 14.62C7.63973 14.763 7.39773 14.763 7.15574 14.62L4.03723 12.8215C4.03723 12.8545 4.03173 12.893 4.02073 12.937C4.02073 12.981 4.02073 13.047 4.02073 13.135C4.02073 13.696 4.15273 14.213 4.41673 14.686C4.69173 15.148 5.07123 15.511 5.55523 15.775C6.03923 16.05 6.57823 16.1875 7.17223 16.1875ZM7.33723 13.498C7.40323 13.531 7.46373 13.5475 7.51873 13.5475C7.57373 13.5475 7.62873 13.531 7.68373 13.498L8.92123 12.7885L4.94473 10.4785C4.70273 10.3355 4.58173 10.121 4.58173 9.835V6.2545C4.03173 6.4965 3.59173 6.8705 3.26173 7.3765C2.93173 7.8715 2.76673 8.4215 2.76673 9.0265C2.76673 9.5655 2.90423 10.0825 3.17923 10.5775C3.45423 11.0725 3.81173 11.4465 4.25173 11.6995L7.33723 13.498ZM11.2477 17.161C11.8307 17.161 12.3587 17.029 12.8317 16.765C13.3047 16.501 13.6787 16.138 13.9537 15.676C14.2287 15.214 14.3662 14.697 14.3662 14.125V10.561C14.3662 10.429 14.3112 10.33 14.2012 10.264L12.9472 9.538V14.1415C12.9472 14.4275 12.8262 14.642 12.5842 14.785L9.46573 16.5835C10.0047 16.9685 10.5987 17.161 11.2477 17.161ZM11.8747 11.122V8.878L10.0102 7.822L8.12924 8.878V11.122L10.0102 12.178L11.8747 11.122ZM7.05673 5.8585C7.05673 5.5725 7.17773 5.358 7.41973 5.215L10.5382 3.4165C9.99924 3.0315 9.40524 2.839 8.75624 2.839C8.17324 2.839 7.64523 2.971 7.17223 3.235C6.69923 3.499 6.32523 3.862 6.05023 4.324C5.78623 4.786 5.65423 5.303 5.65423 5.875V9.4225C5.65423 9.5545 5.70923 9.659 5.81923 9.736L7.05673 10.462V5.8585ZM15.4387 13.7455C15.9887 13.5035 16.4232 13.1295 16.7422 12.6235C17.0722 12.1175 17.2372 11.5675 17.2372 10.9735C17.2372 10.4345 17.0997 9.9175 16.8247 9.4225C16.5497 8.9275 16.1922 8.5535 15.7522 8.3005L12.6667 6.5185C12.6007 6.4745 12.5402 6.458 12.4852 6.469C12.4302 6.469 12.3752 6.4855 12.3202 6.5185L11.0827 7.2115L15.0757 9.538C15.1967 9.604 15.2847 9.692 15.3397 9.802C15.4057 9.901 15.4387 10.022 15.4387 10.165V13.7455ZM12.1222 5.3635C12.3642 5.2095 12.6062 5.2095 12.8482 5.3635L15.9832 7.195C15.9832 7.118 15.9832 7.019 15.9832 6.898C15.9832 6.37 15.8512 5.8695 15.5872 5.3965C15.3342 4.9125 14.9657 4.5275 14.4817 4.2415C14.0087 3.9555 13.4587 3.8125 12.8317 3.8125C12.2817 3.8125 11.8032 3.928 11.3962 4.159L8.29424 5.941C8.18424 6.018 8.12924 6.1225 8.12924 6.2545V7.6735L12.1222 5.3635Z"
    fill="white"
  />
</svg>
